# xmcd
#
# Track frame offsets:
# 150
# 15362
# 28422
# 46967
# 63345
# 81597
# 106352
# 127375
# 149922
# 169430
# 188125
# 205305
# 222702
# 243550
# 263535
# 279145
#
# Disc length: 3951 seconds
#
#
# Revision: 0
# Processed by: cddbd v1.5.1PL0 Copyright (c) Steve Scherf et al.
# Submitted via: FreeRIP 2.942 
#
DISCID=010f6d10
DTITLE=Zezé Di Camargo and  Luciano - Maxximum
DYEAR=1900
DGENRE=Sertanejas
TTITLE0=É o Amôr
TTITLE1=Muda De Vida
TTITLE2=Faz Mais Uma Vez Comigo
TTITLE3=Tente Outra Vez
TTITLE4=Vem Ficar Comigo
TTITLE5=Preciso Ser Amado
TTITLE6=Felicidade, Que Saudade de Você
TTITLE7=Pra Não Pensar Em Voce
TTITLE8=Amor Selvagem
TTITLE9=Pare
TTITLE10=Mexe Mexe Que é Bom
TTITLE11=O Que é Que Eu Faço
TTITLE12=Passou da Conta
TTITLE13=Sufocado
TTITLE14=Nosso Amor é Ouro
TTITLE15=Pra Mudar a Minha Vida
EXTD=
EXTT0=
EXTT1=
EXTT2=
EXTT3=
EXTT4=
EXTT5=
EXTT6=
EXTT7=
EXTT8=
EXTT9=
EXTT10=
EXTT11=
EXTT12=
EXTT13=
EXTT14=
EXTT15=
PLAYORDER=
